<svg width="322" height="76" viewBox="0 0 322 76" fill="none" xmlns="http://www.w3.org/2000/svg">
<path d="M100.276 26.512H103.732V52H100.276V26.512ZM113.896 26.512H118.432L132.472 47.464H132.544V26.512H136V52H131.608L117.424 31.048H117.352V52H113.896V26.512ZM151.476 29.752H143.268V26.512H163.14V29.752H154.932V52H151.476V29.752ZM173.408 26.512V42.136C173.408 42.928 173.516 43.756 173.732 44.62C173.948 45.46 174.308 46.24 174.812 46.96C175.316 47.68 175.976 48.268 176.792 48.724C177.608 49.18 178.616 49.408 179.816 49.408C181.016 49.408 182.024 49.18 182.84 48.724C183.656 48.268 184.316 47.68 184.82 46.96C185.324 46.24 185.684 45.46 185.9 44.62C186.116 43.756 186.224 42.928 186.224 42.136V26.512H189.68V42.676C189.68 44.164 189.428 45.52 188.924 46.744C188.42 47.944 187.724 48.988 186.836 49.876C185.948 50.764 184.904 51.448 183.704 51.928C182.504 52.408 181.208 52.648 179.816 52.648C178.424 52.648 177.128 52.408 175.928 51.928C174.728 51.448 173.684 50.764 172.796 49.876C171.908 48.988 171.212 47.944 170.708 46.744C170.204 45.52 169.952 44.164 169.952 42.676V26.512H173.408ZM199.367 26.512H202.823V52H199.367V26.512ZM218.315 29.752H210.107V26.512H229.979V29.752H221.771V52H218.315V29.752ZM237.259 26.512H240.715V52H237.259V26.512ZM262.578 52.648C260.634 52.648 258.846 52.312 257.214 51.64C255.582 50.944 254.178 49.996 253.002 48.796C251.85 47.596 250.938 46.18 250.266 44.548C249.618 42.916 249.294 41.152 249.294 39.256C249.294 37.36 249.618 35.596 250.266 33.964C250.938 32.332 251.85 30.916 253.002 29.716C254.178 28.516 255.582 27.58 257.214 26.908C258.846 26.212 260.634 25.864 262.578 25.864C264.522 25.864 266.31 26.212 267.942 26.908C269.574 27.58 270.966 28.516 272.118 29.716C273.294 30.916 274.206 32.332 274.854 33.964C275.526 35.596 275.862 37.36 275.862 39.256C275.862 41.152 275.526 42.916 274.854 44.548C274.206 46.18 273.294 47.596 272.118 48.796C270.966 49.996 269.574 50.944 267.942 51.64C266.31 52.312 264.522 52.648 262.578 52.648ZM262.578 49.408C264.042 49.408 265.362 49.144 266.538 48.616C267.714 48.064 268.722 47.332 269.562 46.42C270.402 45.508 271.05 44.44 271.506 43.216C271.962 41.968 272.19 40.648 272.19 39.256C272.19 37.864 271.962 36.556 271.506 35.332C271.05 34.084 270.402 33.004 269.562 32.092C268.722 31.18 267.714 30.46 266.538 29.932C265.362 29.38 264.042 29.104 262.578 29.104C261.114 29.104 259.794 29.38 258.618 29.932C257.442 30.46 256.434 31.18 255.594 32.092C254.754 33.004 254.106 34.084 253.65 35.332C253.194 36.556 252.966 37.864 252.966 39.256C252.966 40.648 253.194 41.968 253.65 43.216C254.106 44.44 254.754 45.508 255.594 46.42C256.434 47.332 257.442 48.064 258.618 48.616C259.794 49.144 261.114 49.408 262.578 49.408ZM284.431 26.512H288.967L303.007 47.464H303.079V26.512H306.535V52H302.143L287.959 31.048H287.887V52H284.431V26.512Z" fill="black"/>
<path d="M100.276 26.512V26.112H99.876V26.512H100.276ZM103.732 26.512H104.132V26.112H103.732V26.512ZM103.732 52V52.4H104.132V52H103.732ZM100.276 52H99.876V52.4H100.276V52ZM100.276 26.912H103.732V26.112H100.276V26.912ZM103.332 26.512V52H104.132V26.512H103.332ZM103.732 51.6H100.276V52.4H103.732V51.6ZM100.676 52V26.512H99.876V52H100.676ZM113.896 26.512V26.112H113.496V26.512H113.896ZM118.432 26.512L118.764 26.2893L118.645 26.112H118.432V26.512ZM132.472 47.464L132.139 47.6867L132.258 47.864H132.472V47.464ZM132.544 47.464V47.864H132.944V47.464H132.544ZM132.544 26.512V26.112H132.144V26.512H132.544ZM136 26.512H136.4V26.112H136V26.512ZM136 52V52.4H136.4V52H136ZM131.608 52L131.276 52.2242L131.395 52.4H131.608V52ZM117.424 31.048L117.755 30.8238L117.636 30.648H117.424V31.048ZM117.352 31.048V30.648H116.952V31.048H117.352ZM117.352 52V52.4H117.752V52H117.352ZM113.896 52H113.496V52.4H113.896V52ZM113.896 26.912H118.432V26.112H113.896V26.912ZM118.099 26.7347L132.139 47.6867L132.804 47.2413L118.764 26.2893L118.099 26.7347ZM132.472 47.864H132.544V47.064H132.472V47.864ZM132.944 47.464V26.512H132.144V47.464H132.944ZM132.544 26.912H136V26.112H132.544V26.912ZM135.6 26.512V52H136.4V26.512H135.6ZM136 51.6H131.608V52.4H136V51.6ZM131.939 51.7758L117.755 30.8238L117.092 31.2722L131.276 52.2242L131.939 51.7758ZM117.424 30.648H117.352V31.448H117.424V30.648ZM116.952 31.048V52H117.752V31.048H116.952ZM117.352 51.6H113.896V52.4H117.352V51.6ZM114.296 52V26.512H113.496V52H114.296ZM151.476 29.752H151.876V29.352H151.476V29.752ZM143.268 29.752H142.868V30.152H143.268V29.752ZM143.268 26.512V26.112H142.868V26.512H143.268ZM163.14 26.512H163.54V26.112H163.14V26.512ZM163.14 29.752V30.152H163.54V29.752H163.14ZM154.932 29.752V29.352H154.532V29.752H154.932ZM154.932 52V52.4H155.332V52H154.932ZM151.476 52H151.076V52.4H151.476V52ZM151.476 29.352H143.268V30.152H151.476V29.352ZM143.668 29.752V26.512H142.868V29.752H143.668ZM143.268 26.912H163.14V26.112H143.268V26.912ZM162.74 26.512V29.752H163.54V26.512H162.74ZM163.14 29.352H154.932V30.152H163.14V29.352ZM154.532 29.752V52H155.332V29.752H154.532ZM154.932 51.6H151.476V52.4H154.932V51.6ZM151.876 52V29.752H151.076V52H151.876ZM173.408 26.512H173.808V26.112H173.408V26.512ZM173.732 44.62L173.344 44.717L173.344 44.7196L173.732 44.62ZM174.812 46.96L175.139 46.7306L175.139 46.7306L174.812 46.96ZM176.792 48.724L176.597 49.0732L176.597 49.0732L176.792 48.724ZM184.82 46.96L185.147 47.1894L185.147 47.1894L184.82 46.96ZM185.9 44.62L186.287 44.7196L186.288 44.717L185.9 44.62ZM186.224 26.512V26.112H185.824V26.512H186.224ZM189.68 26.512H190.08V26.112H189.68V26.512ZM188.924 46.744L189.293 46.8989L189.294 46.8963L188.924 46.744ZM186.836 49.876L186.553 49.5932L186.553 49.5932L186.836 49.876ZM183.704 51.928L183.555 51.5566L183.555 51.5566L183.704 51.928ZM175.928 51.928L176.076 51.5566L176.076 51.5566L175.928 51.928ZM172.796 49.876L173.079 49.5932L173.079 49.5932L172.796 49.876ZM170.708 46.744L170.338 46.8963L170.339 46.8989L170.708 46.744ZM169.952 26.512V26.112H169.552V26.512H169.952ZM173.008 26.512V42.136H173.808V26.512H173.008ZM173.008 42.136C173.008 42.9645 173.121 43.8252 173.344 44.717L174.12 44.523C173.911 43.6868 173.808 42.8915 173.808 42.136H173.008ZM173.344 44.7196C173.572 45.6067 173.953 46.4306 174.484 47.1894L175.139 46.7306C174.663 46.0494 174.323 45.3133 174.119 44.5204L173.344 44.7196ZM174.484 47.1894C175.025 47.9619 175.731 48.5897 176.597 49.0732L176.987 48.3748C176.22 47.9463 175.607 47.3981 175.139 46.7306L174.484 47.1894ZM176.597 49.0732C177.487 49.5707 178.566 49.808 179.816 49.808V49.008C178.665 49.008 177.729 48.7893 176.987 48.3748L176.597 49.0732ZM179.816 49.808C181.065 49.808 182.145 49.5707 183.035 49.0732L182.645 48.3748C181.903 48.7893 180.966 49.008 179.816 49.008V49.808ZM183.035 49.0732C183.9 48.5897 184.607 47.9619 185.147 47.1894L184.492 46.7306C184.025 47.3981 183.411 47.9463 182.645 48.3748L183.035 49.0732ZM185.147 47.1894C185.679 46.4306 186.059 45.6067 186.287 44.7196L185.512 44.5204C185.308 45.3133 184.969 46.0494 184.492 46.7306L185.147 47.1894ZM186.288 44.717C186.511 43.8252 186.624 42.9645 186.624 42.136H185.824C185.824 42.8915 185.721 43.6868 185.512 44.523L186.288 44.717ZM186.624 42.136V26.512H185.824V42.136H186.624ZM186.224 26.912H189.68V26.112H186.224V26.912ZM189.28 26.512V42.676H190.08V26.512H189.28ZM189.28 42.676C189.28 44.1182 189.036 45.4217 188.554 46.5917L189.294 46.8963C189.82 45.6183 190.08 44.2098 190.08 42.676H189.28ZM188.555 46.5891C188.07 47.7431 187.403 48.7432 186.553 49.5932L187.119 50.1588C188.045 49.2328 188.769 48.1449 189.293 46.8989L188.555 46.5891ZM186.553 49.5932C185.704 50.4417 184.706 51.0961 183.555 51.5566L183.852 52.2994C185.101 51.7999 186.191 51.0863 187.119 50.1588L186.553 49.5932ZM183.555 51.5566C182.406 52.0163 181.161 52.248 179.816 52.248V53.048C181.255 53.048 182.602 52.7997 183.852 52.2994L183.555 51.5566ZM179.816 52.248C178.471 52.248 177.226 52.0163 176.076 51.5566L175.779 52.2994C177.03 52.7997 178.377 53.048 179.816 53.048V52.248ZM176.076 51.5566C174.925 51.0961 173.927 50.4417 173.079 49.5932L172.513 50.1588C173.44 51.0863 174.53 51.7999 175.779 52.2994L176.076 51.5566ZM173.079 49.5932C172.229 48.7432 171.561 47.7431 171.077 46.5891L170.339 46.8989C170.862 48.1449 171.587 49.2328 172.513 50.1588L173.079 49.5932ZM171.078 46.5917C170.596 45.4217 170.352 44.1182 170.352 42.676H169.552C169.552 44.2098 169.812 45.6183 170.338 46.8963L171.078 46.5917ZM170.352 42.676V26.512H169.552V42.676H170.352ZM169.952 26.912H173.408V26.112H169.952V26.912ZM199.367 26.512V26.112H198.967V26.512H199.367ZM202.823 26.512H203.223V26.112H202.823V26.512ZM202.823 52V52.4H203.223V52H202.823ZM199.367 52H198.967V52.4H199.367V52ZM199.367 26.912H202.823V26.112H199.367V26.912ZM202.423 26.512V52H203.223V26.512H202.423ZM202.823 51.6H199.367V52.4H202.823V51.6ZM199.767 52V26.512H198.967V52H199.767ZM218.315 29.752H218.715V29.352H218.315V29.752ZM210.107 29.752H209.707V30.152H210.107V29.752ZM210.107 26.512V26.112H209.707V26.512H210.107ZM229.979 26.512H230.379V26.112H229.979V26.512ZM229.979 29.752V30.152H230.379V29.752H229.979ZM221.771 29.752V29.352H221.371V29.752H221.771ZM221.771 52V52.4H222.171V52H221.771ZM218.315 52H217.915V52.4H218.315V52ZM218.315 29.352H210.107V30.152H218.315V29.352ZM210.507 29.752V26.512H209.707V29.752H210.507ZM210.107 26.912H229.979V26.112H210.107V26.912ZM229.579 26.512V29.752H230.379V26.512H229.579ZM229.979 29.352H221.771V30.152H229.979V29.352ZM221.371 29.752V52H222.171V29.752H221.371ZM221.771 51.6H218.315V52.4H221.771V51.6ZM218.715 52V29.752H217.915V52H218.715ZM237.259 26.512V26.112H236.859V26.512H237.259ZM240.715 26.512H241.115V26.112H240.715V26.512ZM240.715 52V52.4H241.115V52H240.715ZM237.259 52H236.859V52.4H237.259V52ZM237.259 26.912H240.715V26.112H237.259V26.912ZM240.315 26.512V52H241.115V26.512H240.315ZM240.715 51.6H237.259V52.4H240.715V51.6ZM237.659 52V26.512H236.859V52H237.659ZM257.214 51.64L257.057 52.008L257.062 52.0099L257.214 51.64ZM253.002 48.796L252.714 49.073L252.717 49.076L253.002 48.796ZM250.266 44.548L249.895 44.6956L249.896 44.7003L250.266 44.548ZM250.266 33.964L249.896 33.8117L249.895 33.8164L250.266 33.964ZM253.002 29.716L252.717 29.436L252.714 29.439L253.002 29.716ZM257.214 26.908L257.367 27.2779L257.371 27.2759L257.214 26.908ZM267.942 26.908L267.785 27.276L267.79 27.2779L267.942 26.908ZM272.118 29.716L271.83 29.993L271.833 29.996L272.118 29.716ZM274.854 33.964L274.483 34.1116L274.484 34.1163L274.854 33.964ZM274.854 44.548L274.484 44.3957L274.483 44.4004L274.854 44.548ZM272.118 48.796L271.833 48.516L271.83 48.519L272.118 48.796ZM267.942 51.64L268.095 52.0099L268.099 52.0079L267.942 51.64ZM266.538 48.616L266.702 48.981L266.708 48.9781L266.538 48.616ZM269.562 46.42L269.268 46.149L269.268 46.149L269.562 46.42ZM271.506 43.216L271.881 43.3556L271.882 43.3533L271.506 43.216ZM271.506 35.332L271.131 35.4693L271.132 35.4716L271.506 35.332ZM269.562 32.092L269.268 32.363L269.268 32.363L269.562 32.092ZM266.538 29.932L266.368 30.2941L266.375 30.2969L266.538 29.932ZM258.618 29.932L258.782 30.297L258.788 30.2941L258.618 29.932ZM255.594 32.092L255.889 32.363L255.889 32.363L255.594 32.092ZM253.65 35.332L254.025 35.4716L254.026 35.4693L253.65 35.332ZM253.65 43.216L253.275 43.3533L253.276 43.3556L253.65 43.216ZM255.594 46.42L255.889 46.149L255.889 46.149L255.594 46.42ZM258.618 48.616L258.448 48.9781L258.455 48.9809L258.618 48.616ZM262.578 52.248C260.681 52.248 258.946 51.9203 257.367 51.2701L257.062 52.0099C258.747 52.7037 260.587 53.048 262.578 53.048V52.248ZM257.371 51.2721C255.785 50.5955 254.425 49.6765 253.288 48.516L252.717 49.076C253.931 50.3155 255.38 51.2925 257.057 52.0079L257.371 51.2721ZM253.291 48.519C252.176 47.3573 251.29 45.9843 250.636 44.3957L249.896 44.7003C250.586 46.3757 251.525 47.8347 252.714 49.073L253.291 48.519ZM250.638 44.4004C250.01 42.819 249.694 41.1055 249.694 39.256H248.894C248.894 41.1985 249.226 43.013 249.895 44.6956L250.638 44.4004ZM249.694 39.256C249.694 37.4065 250.01 35.693 250.638 34.1116L249.895 33.8164C249.226 35.499 248.894 37.3135 248.894 39.256H249.694ZM250.636 34.1163C251.29 32.5277 252.176 31.1547 253.291 29.993L252.714 29.439C251.525 30.6773 250.586 32.1363 249.896 33.8117L250.636 34.1163ZM253.288 29.996C254.424 28.8366 255.782 27.9303 257.367 27.2779L257.062 26.5381C255.383 27.2297 253.932 28.1954 252.717 29.436L253.288 29.996ZM257.371 27.2759C258.949 26.603 260.683 26.264 262.578 26.264V25.464C260.586 25.464 258.744 25.821 257.057 26.5401L257.371 27.2759ZM262.578 26.264C264.474 26.264 266.208 26.603 267.785 27.2759L268.099 26.5401C266.413 25.821 264.571 25.464 262.578 25.464V26.264ZM267.79 27.2779C269.374 27.93 270.719 28.8355 271.83 29.993L272.407 29.439C271.214 28.1965 269.775 27.23 268.095 26.5381L267.79 27.2779ZM271.833 29.996C272.97 31.1563 273.853 32.5267 274.483 34.1116L275.226 33.8164C274.559 32.1373 273.619 30.6757 272.404 29.436L271.833 29.996ZM274.484 34.1163C275.135 35.6965 275.462 37.4083 275.462 39.256H276.262C276.262 37.3117 275.918 35.4955 275.224 33.8117L274.484 34.1163ZM275.462 39.256C275.462 41.1037 275.135 42.8155 274.484 44.3957L275.224 44.7003C275.918 43.0165 276.262 41.2003 276.262 39.256H275.462ZM274.483 44.4004C273.853 45.9853 272.97 47.3557 271.833 48.516L272.404 49.076C273.619 47.8363 274.559 46.3747 275.226 44.6956L274.483 44.4004ZM271.83 48.519C270.718 49.6776 269.371 50.5958 267.785 51.2721L268.099 52.0079C269.777 51.2922 271.215 50.3144 272.407 49.073L271.83 48.519ZM267.79 51.2701C266.211 51.9203 264.475 52.248 262.578 52.248V53.048C264.569 53.048 266.41 52.7037 268.095 52.0099L267.79 51.2701ZM262.578 49.808C264.091 49.808 265.468 49.535 266.702 48.9809L266.375 48.2511C265.257 48.753 263.994 49.008 262.578 49.008V49.808ZM266.708 48.9781C267.929 48.4051 268.98 47.6429 269.857 46.691L269.268 46.149C268.465 47.0211 267.5 47.7229 266.368 48.2539L266.708 48.9781ZM269.857 46.691C270.734 45.7388 271.408 44.6256 271.881 43.3556L271.132 43.0764C270.693 44.2544 270.071 45.2772 269.268 46.149L269.857 46.691ZM271.882 43.3533C272.355 42.0592 272.59 40.6926 272.59 39.256H271.79C271.79 40.6034 271.57 41.8768 271.131 43.0787L271.882 43.3533ZM272.59 39.256C272.59 37.8195 272.355 36.4639 271.881 35.1924L271.132 35.4716C271.57 36.6481 271.79 37.9085 271.79 39.256H272.59ZM271.882 35.1947C271.409 33.9008 270.735 32.7745 269.857 31.821L269.268 32.363C270.07 33.2335 270.691 34.2672 271.131 35.4693L271.882 35.1947ZM269.857 31.821C268.978 30.8676 267.926 30.1164 266.702 29.5671L266.375 30.2969C267.503 30.8036 268.466 31.4924 269.268 32.363L269.857 31.821ZM266.708 29.5699C265.473 28.9899 264.094 28.704 262.578 28.704V29.504C263.991 29.504 265.252 29.7701 266.368 30.2941L266.708 29.5699ZM262.578 28.704C261.063 28.704 259.684 28.9899 258.448 29.5699L258.788 30.2941C259.905 29.7701 261.166 29.504 262.578 29.504V28.704ZM258.455 29.5671C257.231 30.1164 256.178 30.8676 255.3 31.821L255.889 32.363C256.69 31.4924 257.654 30.8036 258.782 30.2969L258.455 29.5671ZM255.3 31.821C254.422 32.7745 253.747 33.9008 253.275 35.1947L254.026 35.4693C254.465 34.2672 255.087 33.2335 255.889 32.363L255.3 31.821ZM253.276 35.1924C252.802 36.4639 252.566 37.8195 252.566 39.256H253.366C253.366 37.9085 253.587 36.6481 254.025 35.4716L253.276 35.1924ZM252.566 39.256C252.566 40.6926 252.802 42.0592 253.275 43.3533L254.026 43.0787C253.587 41.8768 253.366 40.6034 253.366 39.256H252.566ZM253.276 43.3556C253.749 44.6256 254.423 45.7388 255.3 46.691L255.889 46.149C255.086 45.2772 254.464 44.2544 254.025 43.0764L253.276 43.3556ZM255.3 46.691C256.177 47.6429 257.228 48.4051 258.448 48.9781L258.788 48.2539C257.657 47.7229 256.692 47.0211 255.889 46.149L255.3 46.691ZM258.455 48.9809C259.689 49.535 261.066 49.808 262.578 49.808V49.008C261.163 49.008 259.9 48.753 258.782 48.2511L258.455 48.9809ZM284.431 26.512V26.112H284.031V26.512H284.431ZM288.967 26.512L289.3 26.2893L289.181 26.112H288.967V26.512ZM303.007 47.464L302.675 47.6867L302.794 47.864H303.007V47.464ZM303.079 47.464V47.864H303.479V47.464H303.079ZM303.079 26.512V26.112H302.679V26.512H303.079ZM306.535 26.512H306.935V26.112H306.535V26.512ZM306.535 52V52.4H306.935V52H306.535ZM302.143 52L301.812 52.2242L301.931 52.4H302.143V52ZM287.959 31.048L288.291 30.8238L288.172 30.648H287.959V31.048ZM287.887 31.048V30.648H287.487V31.048H287.887ZM287.887 52V52.4H288.287V52H287.887ZM284.431 52H284.031V52.4H284.431V52ZM284.431 26.912H288.967V26.112H284.431V26.912ZM288.635 26.7347L302.675 47.6867L303.34 47.2413L289.3 26.2893L288.635 26.7347ZM303.007 47.864H303.079V47.064H303.007V47.864ZM303.479 47.464V26.512H302.679V47.464H303.479ZM303.079 26.912H306.535V26.112H303.079V26.912ZM306.135 26.512V52H306.935V26.512H306.135ZM306.535 51.6H302.143V52.4H306.535V51.6ZM302.475 51.7758L288.291 30.8238L287.628 31.2722L301.812 52.2242L302.475 51.7758ZM287.959 30.648H287.887V31.448H287.959V30.648ZM287.487 31.048V52H288.287V31.048H287.487ZM287.887 51.6H284.431V52.4H287.887V51.6ZM284.831 52V26.512H284.031V52H284.831Z" fill="black"/>
<path d="M67.1122 67.5748C67.1345 67.6026 67.1751 67.6071 67.2029 67.5847C71.6813 63.9827 75.2726 59.3999 77.6993 54.1898C80.1352 48.9602 81.332 43.2397 81.1967 37.4732C81.0614 31.7067 79.5977 26.0496 76.9194 20.942C74.2511 15.8535 70.4489 11.447 65.8066 8.06257C65.7778 8.04156 65.7374 8.04794 65.7164 8.07679L64.4695 9.79289C64.4485 9.82174 64.455 9.86213 64.4838 9.88314C68.8461 13.0642 72.419 17.2055 74.9266 21.9875C77.4443 26.7887 78.8202 32.1063 78.9473 37.5268C79.0745 42.9474 77.9495 48.3247 75.6598 53.2405C73.3792 58.1368 70.0044 62.4438 65.7962 65.8293C65.7684 65.8516 65.7639 65.8923 65.7862 65.9201L67.1122 67.5748Z" fill="black"/>
<path d="M62.7478 6.12856C62.7659 6.09785 62.7557 6.05824 62.725 6.04017C58.1016 3.32149 52.9482 1.62647 47.6126 1.06984C42.2555 0.51097 36.8404 1.11277 31.7359 2.83428C26.6313 4.55579 21.9571 7.35661 18.0313 11.0461C14.1212 14.7209 11.0449 19.1914 9.00999 24.1556C8.99646 24.1886 9.01232 24.2263 9.04535 24.2398L11.009 25.0401C11.0421 25.0536 11.0797 25.0377 11.0933 25.0047C13.0061 20.3398 15.8973 16.1388 19.5718 12.6854C23.2621 9.21726 27.6559 6.58449 32.4541 4.96627C37.2524 3.34805 42.3426 2.78236 47.3782 3.30769C52.3925 3.83079 57.2355 5.42343 61.5806 7.97784C61.6113 7.99591 61.6509 7.98574 61.669 7.95504L62.7478 6.12856Z" fill="black"/>
<path d="M7.52568 28.7733C7.49121 28.7641 7.45585 28.7847 7.44676 28.8191C6.60065 32.0278 6.18409 35.3345 6.208 38.6524C6.20826 38.6881 6.23745 38.7167 6.27312 38.7164L8.39388 38.6966C8.42954 38.6963 8.45816 38.6671 8.45791 38.6315C8.43579 35.5152 8.82703 32.4096 9.62138 29.3958C9.63047 29.3613 9.60994 29.326 9.57546 29.3168L7.52568 28.7733Z" fill="black"/>
<path d="M6.60422 43.3616C6.56889 43.3664 6.5441 43.3989 6.5489 43.4342C7.23079 48.4492 8.92095 53.2742 11.5178 57.6182C14.1256 61.9806 17.5935 65.767 21.7105 68.7472C25.8275 71.7274 30.5078 73.8391 35.467 74.9542C40.4052 76.0645 45.5172 76.1634 50.4951 75.2453C50.5301 75.2388 50.5533 75.2051 50.5468 75.1701L50.1593 73.085C50.1528 73.05 50.119 73.0268 50.0839 73.0333C45.406 73.8956 40.602 73.8024 35.9614 72.759C31.2998 71.7108 26.9003 69.7258 23.0303 66.9244C19.1603 64.123 15.9005 60.5639 13.4491 56.4631C11.0088 52.3809 9.42024 47.8468 8.77891 43.1341C8.7741 43.0987 8.74159 43.0739 8.70623 43.0787L6.60422 43.3616Z" fill="black"/>
<path d="M54.2606 74.2803C54.2706 74.3145 54.3066 74.3341 54.3408 74.324C57.6142 73.3547 60.7402 71.9431 63.632 70.1282C63.6622 70.1092 63.6713 70.0694 63.6523 70.0392L62.5223 68.2449C62.5033 68.2147 62.4634 68.2057 62.4332 68.2246C59.7169 69.9289 56.7809 71.2548 53.7064 72.1655C53.6722 72.1756 53.6526 72.2115 53.6627 72.2457L54.2606 74.2803Z" fill="black"/>
<path d="M70.64 57.0318C60.3254 71.9002 39.9065 75.5945 25.0333 65.2833C10.16 54.9721 6.4644 34.56 16.779 19.6916C27.0936 4.8232 47.5124 1.12887 62.3857 11.4401C77.259 21.7513 80.9546 42.1634 70.64 57.0318ZM21.6567 23.0732C13.2103 35.2486 16.2365 51.9636 28.4159 60.4072C40.5953 68.8509 57.3159 65.8256 65.7623 53.6502C74.2087 41.4748 71.1825 24.7598 59.0031 16.3162C46.8237 7.87253 30.1031 10.8977 21.6567 23.0732Z" fill="black"/>
</svg>
