<svg width="32" height="32" viewBox="0 0 32 32" fill="none" xmlns="http://www.w3.org/2000/svg">
<rect width="32" height="32" fill="black"/>
<path d="M19.906 9.15625H10V10.6271L11.3726 11.9997H18.957C19.217 11.9997 19.4704 12.1371 19.6663 12.369C19.8624 12.6013 19.9807 12.9065 19.9807 13.194C19.9807 13.483 19.8613 13.8044 19.6622 14.0523C19.4628 14.3007 19.2098 14.4452 18.957 14.4452H11.3726L10 15.8178V17.2602H20.0155L20.0499 17.2504C21.7336 16.7707 22.9379 14.9959 22.9379 13.194C22.9379 11.347 21.6745 9.604 19.9369 9.16408L19.906 9.15625Z" fill="white"/>
<path d="M16.1994 22.6831V23.9974H12.9295L10.0859 21.1539V17.8555H11.3718L16.1994 22.6831Z" fill="white"/>
<path d="M22.8537 22.6832V23.9974H19.5837L16.7402 21.1539V17.8555H18.0261L22.8537 22.6832Z" fill="white"/>
</svg>
