<svg width="2000" height="448" viewBox="0 0 2000 448" fill="none" xmlns="http://www.w3.org/2000/svg">
<mask id="mask0_245_1897" style="mask-type:luminance" maskUnits="userSpaceOnUse" x="839" y="96" width="1162" height="261">
<path d="M2000 96.6578H839.715V356.063H2000V96.6578Z" fill="white"/>
</mask>
<g mask="url(#mask0_245_1897)">
<path d="M1999.97 108.046C1999.97 103.183 1996.04 99.2558 1991.18 99.2558H1958.05C1953.18 99.2558 1949.26 103.183 1949.26 108.046V305.257H1776.81V108.046C1776.81 103.183 1772.89 99.2558 1768.02 99.2558H1734.89C1730.02 99.2558 1726.1 103.183 1726.1 108.046V298.552C1726.1 302.871 1727.67 307.039 1730.54 310.271L1765.97 350.445C1769.08 353.949 1773.52 355.972 1778.2 355.972H1947.93C1952.61 355.972 1957.08 353.949 1960.16 350.445L1995.59 310.271C1998.46 307.039 2000.03 302.871 2000.03 298.552V108.046H1999.97Z" fill="white"/>
<path d="M1099.66 355.278H1063.9C1059.76 355.278 1056.41 351.925 1056.41 347.787V106.747C1056.41 102.609 1059.76 99.2558 1063.9 99.2558H1099.66C1103.8 99.2558 1107.16 102.609 1107.16 106.747V347.787C1107.16 351.925 1103.8 355.278 1099.66 355.278Z" fill="white"/>
<path d="M1491.37 355.278H1455.61C1451.47 355.278 1448.12 351.925 1448.12 347.787V106.747C1448.12 102.609 1451.47 99.2558 1455.61 99.2558H1491.37C1495.51 99.2558 1498.86 102.609 1498.86 106.747V347.787C1498.86 351.925 1495.51 355.278 1491.37 355.278Z" fill="white"/>
<path d="M882.969 355.278H847.206C843.068 355.278 839.715 351.925 839.715 347.787V106.747C839.715 102.609 843.068 99.2558 847.206 99.2558H882.969C887.107 99.2558 890.46 102.609 890.46 106.747V347.787C890.46 351.925 887.107 355.278 882.969 355.278Z" fill="white"/>
<path d="M1010.8 206.123L1065.44 252.609H878.832V201.864H999.262C1003.49 201.864 1007.6 203.374 1010.83 206.123H1010.8Z" fill="white"/>
<path d="M1663.27 355.64H1705.38C1709.24 355.64 1711.33 351.109 1708.82 348.179L1609.08 231.737C1606.63 228.867 1603.04 227.206 1599.23 227.206H1547.28L1653.42 351.109C1655.87 353.979 1659.46 355.64 1663.27 355.64Z" fill="white"/>
<path d="M1555.16 227.629H1489.8L1643.36 103.605C1646.56 101.038 1650.55 99.6179 1654.66 99.6179H1702.78C1707.85 99.6179 1710.09 106.021 1706.07 109.163L1555.16 227.629Z" fill="white"/>
</g>
<mask id="mask1_245_1897" style="mask-type:luminance" maskUnits="userSpaceOnUse" x="0" y="0" width="559" height="448">
<path d="M558.38 0H0V447.435H558.38V0Z" fill="white"/>
</mask>
<g mask="url(#mask1_245_1897)">
<path d="M103.665 235.422L4.3496 133.116C1.57069 130.246 0 126.41 0 122.393V37.2132C0 28.7254 6.88687 21.8386 15.3746 21.8386H105.719C110.311 21.8386 114.63 23.8925 117.56 27.3964L177.488 99.7085C242.913 179.904 260.764 211.862 356.516 211.862H457.856L554.181 314.107C556.869 316.947 558.38 320.723 558.38 324.649V410.101C558.38 418.589 551.493 425.475 543.005 425.475H454.956C450.788 425.475 446.8 423.784 443.901 420.793C428.828 405.207 380.409 355.157 365.94 340.658C348.693 323.411 286.983 235.422 197.001 235.422H103.635H103.665Z" fill="url(#paint0_linear_245_1897)"/>
<path d="M209.415 336.218L113.09 233.851H15.3746C6.88687 233.851 0 240.738 0 249.226V334.406C0 338.393 1.57069 342.259 4.3496 345.129L99.1346 442.783C102.034 445.774 106.021 447.435 110.16 447.435H198.209C206.697 447.435 213.583 440.548 213.583 432.06V346.73C213.583 342.803 212.103 339.057 209.415 336.188V336.218Z" fill="url(#paint1_linear_245_1897)"/>
<path d="M553.304 102.367L461.539 4.83289C458.64 1.75192 454.592 0 450.333 0H359.263C350.776 0 343.889 6.88687 343.889 15.3746V100.554C343.889 104.541 345.459 108.408 348.238 111.277L447.554 213.614H542.128C550.615 213.614 557.502 206.727 557.502 198.239V112.908C557.502 108.982 556.022 105.236 553.334 102.367H553.304Z" fill="url(#paint2_linear_245_1897)"/>
</g>
<mask id="mask2_245_1897" style="mask-type:luminance" maskUnits="userSpaceOnUse" x="1141" y="96" width="275" height="261">
<path d="M1415.67 96.6578H1141.77V356.063H1415.67V96.6578Z" fill="white"/>
</mask>
<g mask="url(#mask2_245_1897)">
<path d="M1360.91 96.6578H1196.56C1190.16 96.6578 1184.09 99.4065 1179.89 104.209L1147.3 141.332C1143.73 145.379 1141.77 150.575 1141.77 155.981V296.739C1141.77 302.116 1143.73 307.341 1147.3 311.389L1179.89 348.512C1184.12 353.314 1190.19 356.063 1196.56 356.063H1360.91C1367.31 356.063 1373.39 353.314 1377.58 348.512L1410.18 311.389C1413.74 307.341 1415.7 302.146 1415.7 296.739V155.981C1415.7 150.605 1413.74 145.379 1410.18 141.332L1377.58 104.209C1373.36 99.4065 1367.28 96.6578 1360.91 96.6578ZM1367.83 307.976H1189.62V144.745H1367.83V307.946V307.976Z" fill="white"/>
</g>
<defs>
<linearGradient id="paint0_linear_245_1897" x1="279.19" y1="21.8386" x2="279.19" y2="425.475" gradientUnits="userSpaceOnUse">
<stop stop-color="#A1FFCC"/>
<stop offset="1" stop-color="#2085FA"/>
</linearGradient>
<linearGradient id="paint1_linear_245_1897" x1="106.792" y1="233.851" x2="106.792" y2="447.435" gradientUnits="userSpaceOnUse">
<stop stop-color="#A1FFCC"/>
<stop offset="1" stop-color="#2085FA"/>
</linearGradient>
<linearGradient id="paint2_linear_245_1897" x1="450.696" y1="0" x2="450.696" y2="213.614" gradientUnits="userSpaceOnUse">
<stop stop-color="#A1FFCC"/>
<stop offset="1" stop-color="#2085FA"/>
</linearGradient>
</defs>
</svg>
