<svg width="964" height="835" viewBox="0 0 964 835" fill="none" xmlns="http://www.w3.org/2000/svg">
<path 
  stroke="currentColor"
  stroke-miterlimit="10"
  stroke-linecap="round"
  stroke-linejoin="round" 
  d="M1 1.00009C69.2057 9.99885 122.406 27.1916 180.153 64.7895C228.352 96.2818 286.403 111.707 343.09 111.384C394.168 111.064 448.581 97.7284 490.414 65.7539C544.827 24.1388 591.207 8.87319 659.868 2.1258M8.5785 20.6021C80.4218 36.6692 133.319 62.2172 191.066 107.849C236.991 144.001 298.226 169.067 356.276 168.423C408.415 167.943 464.041 145.126 502.387 107.849C518.909 91.7807 533.611 74.2671 552.708 61.4141C587.872 37.7949 629.856 31.0458 670.174 24.779M20.2504 40.2058C96.0345 63.022 149.083 97.2462 208.952 149.144C253.817 187.867 314.595 216.628 373.405 215.342C430.091 214.057 482.989 187.064 521.335 143.682C570.747 87.9265 613.185 63.6655 686.241 49.3643M35.4075 59.8062C111.495 87.6039 165.15 126.166 224.717 181.599C268.67 222.572 333.846 260.331 394.321 259.528C448.735 258.723 505.268 223.536 539.978 181.116C555.438 162.318 569.23 142.074 587.419 126.005C621.976 95.6383 663.809 84.7124 707.007 75.2315M53.2865 79.41C128.616 110.902 184.242 153 243.05 210.361C288.823 255.029 353.24 294.233 417.354 292.627C475.859 291.18 529.515 256.956 565.891 210.199C613.786 148.5 655.619 119.74 731.404 102.386M73.1452 99.0137C149.384 134.041 205.919 179.833 266.092 238.962C312.319 284.273 377.494 324.441 442.517 322.835C501.628 321.389 555.284 286.684 591.963 239.444C640.314 177.103 682.147 147.699 758.688 130.185M94.2104 118.616C172.723 157.338 229.864 207.147 293.069 267.722C338.084 310.945 406.29 351.434 468.887 350.793C524.968 350.149 581.956 312.551 617.273 268.848C634.248 247.799 649.253 225.304 669.866 207.951C704.424 178.868 745.044 167.622 787.635 158.463M115.884 138.218C195.76 179.833 254.418 233.82 320.652 294.555C367.032 337.135 432.509 371.359 495.108 370.395C554.674 369.43 608.632 337.296 647.433 291.02C697.755 230.929 740.497 202.328 817.493 187.064M137.258 157.82C216.983 201.202 277.005 257.117 344.756 316.889C392.348 358.825 457.977 389.997 520.727 389.194C580.292 388.389 634.403 359.307 674.567 314.157C726.253 255.993 769.904 228.998 846.598 215.663M157.869 177.422C235.928 221.287 296.858 277.363 364.912 335.367C413.868 377.144 481.62 407.51 545.581 407.351C605.451 407.189 661.835 377.144 703.061 333.438C754.897 278.648 800.519 254.546 874.939 243.782M176.822 197.026C254.424 242.014 316.567 299.376 385.985 355.772C436.609 396.746 503.753 422.132 567.867 422.132C627.737 422.132 683.818 396.584 727.014 354.166C780.367 301.785 826.897 279.933 900.862 271.096M193.494 216.629C270.642 262.582 333.694 321.39 404.629 375.699C456.768 415.706 523.155 436.113 587.419 436.272C647.441 436.434 702.915 415.064 748.082 374.091C802.798 324.282 850.24 304.357 923.75 297.61M206.981 236.23C282.461 282.505 345.816 341.152 416.751 393.532C471.467 434.023 536.794 449.928 603.028 449.928C661.988 449.928 716.552 434.664 762.781 395.299C819.467 346.937 868.121 327.656 942.239 322.674M216.683 255.833C291.558 303.233 355.52 363.325 427.514 414.259C483.139 453.625 548.163 465.676 614.247 465.515C673.358 465.515 727.468 452.822 774.909 414.58C832.504 367.985 881.765 349.989 955.578 346.454M221.839 275.434C296.107 324.119 360.523 386.139 433.579 435.95C489.812 474.351 554.379 483.188 620.311 482.867C679.575 482.545 733.229 471.78 781.428 433.861C839.479 388.068 888.891 370.875 962.704 368.305M221.983 295.038C296.706 343.4 360.97 404.94 433.723 455.392C490.259 494.596 554.068 502.631 620.456 502.148C680.022 501.828 733.223 491.705 781.573 453.463C839.623 407.51 888.883 390.156 963 388.229M216.837 314.641C293.076 360.433 356.281 419.402 427.669 471.622C484.204 512.915 546.802 521.752 614.25 521.431C673.968 521.11 727.017 511.791 775.367 473.067C833.417 426.632 882.374 409.279 956.642 407.994M207.434 334.243C286.249 377.947 348.544 435.951 419.932 489.939C475.255 531.714 536.489 540.392 603.179 540.23C664.866 540.069 716.855 530.428 766.417 490.421C823.71 444.307 871.606 428.24 945.269 427.435M194.401 353.845C274.58 394.657 335.207 450.251 405.233 506.004C460.404 549.869 519.969 559.028 587.57 558.868C649.56 558.707 700.942 550.03 750.656 509.539C807.949 462.944 855.541 447.198 929.356 447.037M178.337 373.449C227.142 395.943 272.764 421.491 314.749 456.518C340.667 478.21 364.159 503.115 390.229 524.805C443.733 568.991 501.935 578.31 568.322 578.149C628.647 577.989 680.331 570.599 728.984 530.911C746.111 516.932 762.026 501.347 781.275 490.581C821.29 468.087 865.548 466.32 909.958 466.641M160.148 392.888C208.954 413.295 254.12 436.914 295.348 471.621C321.266 493.472 344.152 518.859 369.615 541.193C422.514 587.467 479.352 597.59 546.496 597.59C606.971 597.59 658.353 590.681 707.007 550.511C724.134 536.373 740.049 520.627 759.298 509.701C799.312 487.044 843.419 485.599 887.827 486.241M140.135 412.492C185.909 429.685 229.257 449.769 267.906 481.582C295.189 503.918 318.53 530.911 344.146 555.173C397.497 605.947 452.365 617.032 522.694 617.194C582.259 617.355 632.428 612.373 680.475 572.526C700.029 556.297 717.914 538.301 740.345 526.252C778.996 505.524 821.131 504.88 863.57 505.524M119.523 432.094C165.145 447.197 208.04 465.675 246.083 497.167C273.366 519.822 295.95 547.299 320.806 572.524C373.097 625.708 426.449 638.081 497.687 638.24C557.556 638.402 607.421 633.741 655.318 593.09C674.87 576.541 692.604 558.224 715.035 545.852C753.534 524.803 795.822 524.162 838.26 525.124M98.613 451.698C145.296 465.355 187.887 482.226 225.931 514.844C251.091 536.374 272.008 562.564 294.287 587.307C345.518 644.188 398.87 660.897 472.38 661.22C533.765 661.54 584.389 654.791 632.436 612.214C650.473 596.145 667.145 578.952 687.91 566.902C726.863 544.407 769.454 543.765 812.803 544.73M78.146 471.298C124.678 483.027 166.662 498.452 204.1 531.23C229.259 553.243 249.418 580.236 271.092 605.945C320.958 665.395 372.795 684.676 447.517 684.997C509.357 685.319 559.831 677.928 607.423 634.223C625.46 617.674 641.98 599.999 662.896 587.467C701.698 564.33 744.288 563.366 787.788 564.49M58.8956 490.903C105.427 500.865 146.805 515.005 183.637 548.103C208.797 570.758 228.349 598.717 249.266 625.549C297.615 687.41 348.087 710.065 424.024 710.547C486.469 710.868 536.791 702.352 583.928 657.202C601.965 640.01 618.485 621.532 639.554 608.517C678.204 584.416 720.643 583.292 764.446 584.095M41.7692 510.502C88.1491 518.857 129.224 531.873 165.297 565.454C190.458 588.912 209.555 618.156 229.714 646.114C276.396 710.544 325.657 737.377 402.957 738.02C466.16 738.502 516.481 728.219 563.013 681.301C580.898 663.306 597.418 644.025 618.639 630.045C656.985 604.819 699.423 603.052 743.681 603.695M27.0659 530.106C74.5068 537.335 115.582 549.708 151.503 585.377C176.968 610.604 195.458 642.096 215.465 671.822C259.572 736.895 308.528 766.46 384.616 766.942C446.606 767.424 497.08 756.176 542.247 709.259C560.587 690.139 577.259 669.089 598.781 653.504C637.432 625.868 680.325 623.136 725.795 623.136M15.7034 549.71C63.4472 555.655 103.916 567.546 139.08 604.179C164.543 630.69 182.429 663.951 201.981 695.122C244.117 762.445 292.316 798.436 370.221 799.079C433.275 799.561 484.049 784.779 528.156 736.094C546.647 715.688 563.168 693.515 584.842 676.644C622.734 647.241 666.234 643.383 712.159 642.903M8.42383 569.312C56.471 574.293 96.4849 585.7 131.043 623.62C156.658 651.739 174.088 686.766 193.035 719.865C232.896 789.116 280.488 833.141 360.365 833.945C424.479 834.588 475.708 815.146 518.603 764.372C537.093 742.52 553.615 718.901 575.592 700.584C613.181 669.252 656.378 663.95 703.213 662.503"/>
</svg>
